<?xml version="1.0" encoding="iso-8859-1"?>
<!-- Generator: Adobe Illustrator 19.0.0 Issou la chancla Edition, SVG Export Plug-In . SVG Version: 6.00 Build 0)  -->
<svg version="1.1" id="Layer_1" xmlns="http://www.w3.org/2000/svg" xmlns:xlink="http://www.w3.org/1999/xlink" x="0px" y="0px"
	 viewBox="0 0 496.2 496.2" style="enable-background:new 0 0 496.2 496.2;" xml:space="preserve">
<path style="fill:#32BEA6;" d="M496.2,248.1C496.2,111.1,385.1,0,248.1,0S0,111.1,0,248.1s111.1,248.1,248.1,248.1
	S496.2,385.1,496.2,248.1z"/>
<path style="fill:#C11A1A;" d="M417.1,360.6h-338c0,0,20-101.4,20-163.3h298C397.1,258.1,417.1,360.6,417.1,360.6z"/>
<path style="fill:#6D0B0B;" d="M337.5,360.6H158.7c0,0,82.2-101.4,82.2-163.3h14.6C255.4,258.1,337.5,360.6,337.5,360.6z"/>
<g>
	<path style="fill:#E58585;" d="M227.1,259.3L214,260c-7.7,28.3-62.7,89-73.3,100.6h32.8C215.2,318.3,227.1,259.3,227.1,259.3z"/>
	<path style="fill:#E58585;" d="M283.1,260l-13.1-0.7c0,0,11.9,59,53.6,101.3h32.8C345.7,349,290.7,288.3,283.1,260z"/>
</g>
<g>
	<path style="fill:#FFB30B;" d="M245.9,96.7h-1.5c0,0-57.1,56.3-122.6,100.1h-0.1c0,0,0,0,0,0.1l0,0l0,0c0.1,1.9-0.2,48.6-0.2,48.6
		h0.2c0.3,11.4,9.6,20.6,21.1,20.6c11.7,0,21.1-9.5,21.1-21.1h-0.2l0.2-48.1l0,0C172.2,191.2,245.9,96.7,245.9,96.7z"/>
	<path style="fill:#FFB30B;" d="M248.1,196.9l0.5-100.2h-1.7l-41.1,100.1l0,0c0,0,0,0,0,0.1l0,0l0,0c0.1,1.8,0,42.9,0,48l0,0v0.1
		c0,0.3,0,0.4,0,0.4l0,0c0.3,11.4,9.6,20.6,21.1,20.6c11.7,0,21.1-9.5,21.1-21.1h-0.1L248.1,196.9L248.1,196.9z"/>
</g>
<g>
	<path style="fill:#EA4949;" d="M290.2,196.9h0.2L252.1,96.7h-3.8l-0.2,148.2l0,0c0,11.7,9.4,21.1,21.1,21.1s21.1-9.5,21.1-21.1
		h-0.1C290.1,239.8,290.1,198.6,290.2,196.9z"/>
	<path style="fill:#EA4949;" d="M244.8,96.7h-1c0,0-51.4,45.6-70.4,58.4c-18.6,12.5-71.1,40.2-73.9,41.7h-0.4
		c0.1,0.1-17.6,42.9-19.8,48.1h-0.1c0,0.1,0,0.1,0,0.2c-0.1,0.2-0.1,0.3-0.1,0.3h0.1c0.3,11.4,9.6,20.6,21.1,20.6
		s20.8-9.2,21.1-20.6l0,0l0.2-48.6l0,0C164.6,173.1,244.8,96.7,244.8,96.7z"/>
	<path style="fill:#EA4949;" d="M205.7,196.9C205.8,196.9,205.8,196.9,205.7,196.9c7.1-6.6,41.2-100.2,41.2-100.2h-1l-82.1,100.1
		h-0.1c0,0,0,0,0,0.1l0,0l0,0c0.1,1.8,0,48,0,48c0,11.7,9.5,21.1,21.1,21.1c11.7,0,21.1-9.5,21.1-21.1L205.7,196.9z"/>
</g>
<g>
	<path style="fill:#FFB30B;" d="M250.5,96.7h1.5c0,0,51.4,45.6,70.4,58.4c18.6,12.5,71.1,40.2,73.9,41.7h0.3
		c-0.1,0.1,17.6,42.9,19.8,48.1h0.1c0,0.1,0,0.1,0,0.2c0.1,0.2,0.1,0.3,0.1,0.3h-0.1c-0.3,11.4-9.6,20.6-21.1,20.6
		s-20.8-9.2-21.1-20.6l0,0l-0.2-48.6l0,0C331.1,173.1,250.5,96.7,250.5,96.7z"/>
	<path style="fill:#FFB30B;" d="M290,196.9L290,196.9c-7.1-6.6-41.2-100.2-41.2-100.2h1l82.1,100.1h0.1c0,0,0,0,0,0.1l0,0l0,0
		c-0.1,1.8,0,48,0,48c0,11.7-9.5,21.1-21.1,21.1c-11.7,0-21.1-9.5-21.1-21.1L290,196.9z"/>
</g>
<path style="fill:#EA4949;" d="M249.9,96.7h1.1c0,0,57.5,56.3,123,100.1h0.1c0,0,0,0,0,0.1l0,0l0,0c-0.1,1.9,0.2,48.6,0.2,48.6h-0.2
	c-0.3,11.4-9.6,20.6-21.1,20.6c-11.7,0-21.1-9.5-21.1-21.1h0.2l-0.2-48.1l0,0C323.6,191.2,249.9,96.7,249.9,96.7z"/>
<path style="fill:#FFB30B;" d="M262.1,57.1c-9.9,0-12.8,2.3-12.8,2.3v27.1c0,0,6-2.3,12.9-2.3c8,0,14,3.3,16.7,5.1V62.1
	C276.3,60.2,270.7,57.1,262.1,57.1z"/>
<path style="fill:#E59A05;" d="M280.6,90.6c0,0,7,5.9,15.8,4.7C307,94.1,313,84.5,313,77.7s-0.1,1.9-11.5,1.9
	c-11.5,0-13.7-9.7-20.8-16.2c-0.1-0.1-0.1-0.1-0.2-0.2c-0.3-0.2-0.8-0.7-1.5-1.2v27.3C280,90.1,280.6,90.7,280.6,90.6L280.6,90.6z"
	/>
<polygon style="fill:#7C2727;" points="249.2,45.6 246.6,45.6 243.7,96.7 252.1,96.7 "/>
<circle style="fill:#FFB30B;" cx="247.9" cy="46" r="6"/>
<g>
</g>
<g>
</g>
<g>
</g>
<g>
</g>
<g>
</g>
<g>
</g>
<g>
</g>
<g>
</g>
<g>
</g>
<g>
</g>
<g>
</g>
<g>
</g>
<g>
</g>
<g>
</g>
<g>
</g>
</svg>
